<svg xmlns="http://www.w3.org/2000/svg" viewBox="0 0 447.44 565.85"><defs><style>.cls-1{fill:#269199;}</style></defs><g id="Layer_2" data-name="Layer 2"><path class="cls-1" d="M708.09,74.74H893.26v93h-176C659.14,170,602.6,206.07,575.45,257.46c-19.71,37.31-24.58,80.7-24.56,122.91H446.7c-1-32.54-.52-64.35,5.87-96.27a264.27,264.27,0,0,1,90.08-150.54C588.64,95.6,648.45,75.14,708.09,74.74Z" transform="translate(-446.3 -74.74)"/><path class="cls-1" d="M632,640.6H446.78v-93h176c58.08-2.29,114.62-38.35,141.77-89.74,19.72-37.32,24.58-80.71,24.56-122.91H893.33c1,32.53.52,64.34-5.87,96.26a264.22,264.22,0,0,1-90.08,150.55C751.39,619.74,691.58,640.2,632,640.6Z" transform="translate(-446.3 -74.74)"/></g></svg>